<svg id="Objects" xmlns="http://www.w3.org/2000/svg" xmlns:xlink="http://www.w3.org/1999/xlink" viewBox="0 0 717.93 366.74"><defs><style>.cls-1{fill:url(#linear-gradient);}.cls-2{fill:url(#Degradado_sin_nombre_67);}.cls-3,.cls-4,.cls-7{fill-rule:evenodd;}.cls-3{fill:url(#linear-gradient-2);}.cls-4{fill:url(#linear-gradient-3);}.cls-5{fill:url(#linear-gradient-4);}.cls-6{opacity:0.63;fill:url(#Degradado_sin_nombre_505);}.cls-7{opacity:0.65;fill:url(#Degradado_sin_nombre_84);}.cls-8{fill:url(#Degradado_sin_nombre_129);}.cls-9{fill:#cb2756;}</style><linearGradient id="linear-gradient" x1="53.14" y1="122.43" x2="184.82" y2="280.82" gradientUnits="userSpaceOnUse"><stop offset="0" stop-color="#cb2756"/><stop offset="0.13" stop-color="#b21859"/><stop offset="0.28" stop-color="#9d0c5b" stop-opacity="0.99"/><stop offset="0.43" stop-color="#90045d" stop-opacity="0.99"/><stop offset="0.56" stop-color="#8c025d" stop-opacity="0.99"/><stop offset="0.97" stop-color="#3c3050" stop-opacity="0.97"/></linearGradient><linearGradient id="Degradado_sin_nombre_67" x1="140.37" y1="109.48" x2="140.37" y2="109.48" gradientUnits="userSpaceOnUse"><stop offset="0.01" stop-color="#01b89d"/><stop offset="0.33" stop-color="#01968e" stop-opacity="0.99"/><stop offset="1" stop-color="#00466a" stop-opacity="0.97"/></linearGradient><linearGradient id="linear-gradient-2" x1="397.77" y1="136.13" x2="239.21" y2="45.71" gradientUnits="userSpaceOnUse"><stop offset="0" stop-color="#3c3050"/><stop offset="0.15" stop-color="#452e51"/><stop offset="0.39" stop-color="#5e2a52" stop-opacity="0.99"/><stop offset="0.69" stop-color="#872355" stop-opacity="0.98"/><stop offset="1" stop-color="#b71b58" stop-opacity="0.97"/></linearGradient><linearGradient id="linear-gradient-3" x1="154.69" y1="13.23" x2="509.56" y2="157.46" gradientUnits="userSpaceOnUse"><stop offset="0" stop-color="#222961" stop-opacity="0"/><stop offset="0.1" stop-color="#2a2961" stop-opacity="0.04"/><stop offset="0.27" stop-color="#3e295f" stop-opacity="0.16"/><stop offset="0.48" stop-color="#5f285d" stop-opacity="0.35"/><stop offset="0.72" stop-color="#8d285a" stop-opacity="0.62"/><stop offset="0.99" stop-color="#c82756" stop-opacity="0.95"/><stop offset="1" stop-color="#cb2756" stop-opacity="0.97"/></linearGradient><linearGradient id="linear-gradient-4" x1="391.63" y1="54.68" x2="188.18" y2="370.47" gradientUnits="userSpaceOnUse"><stop offset="0.01" stop-color="#cb2756"/><stop offset="0.4" stop-color="#9f0d5b"/><stop offset="0.55" stop-color="#8c025d"/><stop offset="1" stop-color="#00555b"/></linearGradient><linearGradient id="Degradado_sin_nombre_505" x1="340.27" y1="7.36" x2="269.49" y2="117.22" gradientUnits="userSpaceOnUse"><stop offset="0" stop-color="#222961"/><stop offset="0.42" stop-color="#212d62" stop-opacity="0.98"/><stop offset="0.59" stop-color="#1f3964" stop-opacity="0.91"/><stop offset="0.71" stop-color="#1b4f67" stop-opacity="0.78"/><stop offset="0.82" stop-color="#146e6d" stop-opacity="0.6"/><stop offset="0.9" stop-color="#0d9673" stop-opacity="0.37"/><stop offset="0.98" stop-color="#03c77c" stop-opacity="0.09"/><stop offset="1" stop-color="#00d67e" stop-opacity="0"/></linearGradient><linearGradient id="Degradado_sin_nombre_84" x1="213.14" y1="150.32" x2="162.49" y2="345.69" gradientUnits="userSpaceOnUse"><stop offset="0.01" stop-color="#01c49d" stop-opacity="0"/><stop offset="0.1" stop-color="#06a990" stop-opacity="0.16"/><stop offset="0.32" stop-color="#116d74" stop-opacity="0.51"/><stop offset="0.55" stop-color="#1a415f" stop-opacity="0.77"/><stop offset="0.77" stop-color="#1e2853" stop-opacity="0.92"/><stop offset="1" stop-color="#201f4f" stop-opacity="0.97"/></linearGradient><linearGradient id="Degradado_sin_nombre_129" x1="372.33" y1="220.18" x2="173.82" y2="155.51" gradientUnits="userSpaceOnUse"><stop offset="0.01" stop-color="#01c49d" stop-opacity="0"/><stop offset="0.35" stop-color="#248088" stop-opacity="0.38"/><stop offset="0.78" stop-color="#4a3472" stop-opacity="0.8"/><stop offset="1" stop-color="#591769" stop-opacity="0.96"/></linearGradient></defs><title>logo</title><polygon class="cls-1" points="53.7 0 0 102.53 147.62 359.17 267.38 359.15 53.7 0"/><path class="cls-2" d="M140.37,109.48" transform="translate(-4.21 -6.95)"/><polygon class="cls-3" points="147.57 102.53 196.06 0 353.72 1.93 415.79 102 147.57 102.53"/><polygon class="cls-4" points="147.57 102.53 196.06 0 353.72 1.93 415.79 102 147.57 102.53"/><polyline class="cls-5" points="147.57 359.15 267.38 359.15 415.79 102 353.72 1.93"/><path class="cls-6" d="M357.93,8.89c-4.7,3.49-108.74,100.42-108.74,100.42l50.86-.12Z" transform="translate(-4.21 -6.95)"/><polygon class="cls-7" points="147.62 359.17 177.14 207.47 206.65 257.08 147.62 359.17"/><polyline class="cls-8" points="147.57 359.15 267.38 359.15 415.79 102 353.72 1.93"/><path class="cls-9" d="M465.95,248.89q0,19,1,57.09t1,57.09q0,3.22-1.45,4a33.21,33.21,0,0,1-4.18.64,240.41,240.41,0,0,1-28,1.29q-23.48,0-29.91-1.29-4.67-1-4.66-5,0,2.57,1.45-28.3Q404,269.32,404,248.89q0-17.21-1.13-51.62t-1.13-51.62q0-3.54,3.7-3.54,5,0,15,.48t15,.48q5,0,14.71-.48t14.71-.48q4.66,0,4.66,3.54,0,17.21-1.85,51.62T465.95,248.89Z" transform="translate(-4.21 -6.95)"/><path class="cls-9" d="M722.14,255.17q0,50.18-32,84.11-32.65,34.42-82.66,34.42-49.69,0-82.5-34.74Q492.81,305,492.81,255.17q0-50,32.17-84.11,32.81-34.9,82.5-34.9,49.37,0,82.34,34.9Q722.14,205.47,722.14,255.17Zm-61-.32q0-24.12-14.63-41-15.28-17.69-39.08-17.69-22.68,0-38.44,18.33a60.43,60.43,0,0,0-15.28,40.69q0,24.61,14.31,41,15.12,17.21,39.4,17.21,22.68,0,38.6-18.17A59.61,59.61,0,0,0,661.19,254.84Z" transform="translate(-4.21 -6.95)"/></svg>